<svg xmlns="http://www.w3.org/2000/svg" width="1890" height="600" viewBox="0 231.5 1890 600">
  <defs>
    <style>
      .cls-1 {
        fill: #000;
      }
    </style>
  </defs>
  <path id="rouss" class="cls-1" d="M163.518,532.389q5.819-26.886,16.132-35.848,10.291-8.947,23.749-4.481a247.248,247.248,0,0,1,29.126,12.1q15.671,7.625,32.711,14.339,17.015,6.721,33.16,1.345a38.317,38.317,0,0,0,18.82-11.2,111.629,111.629,0,0,0,14.339-18.82,86.043,86.043,0,0,0,9.41-21.509,75.745,75.745,0,0,0,3.137-20.164,77.311,77.311,0,0,0-9.411-37.192,115.521,115.521,0,0,0-24.2-30.919,112.089,112.089,0,0,0-33.607-21.06,99.827,99.827,0,0,0-37.64-7.618q-26.886,0-42.121,13.891-15.251,13.9-32.263,32.711,1.785-25.08-16.58-39.881a65.935,65.935,0,0,0-42.569-14.787q-41.232,0-61.39,25.542T24.16,434.7q0,58.266-1.344,108.44-1.344,50.2-1.344,108.439,0,20.626,1.344,41.673a134.365,134.365,0,0,0,7.618,38.088A62.3,62.3,0,0,0,50.15,759.126q13.443,10.755,36.744,10.755,26.885,0,41.225-16.58,14.325-16.572,21.06-40.329a211.355,211.355,0,0,0,7.618-50.635q0.882-26.885.9-48.394Q157.693,559.289,163.518,532.389Zm211.95,100.822q9.852,38.985,31.815,68.559t58.7,46.154q36.737,16.593,90.516,13.891,51.965-2.688,86.482-23.3,34.49-20.606,55.564-51.531a205.617,205.617,0,0,0,30.023-68.111,311.518,311.518,0,0,0,8.962-73.04q0-92.293-44.81-142.943-44.823-50.62-142.495-50.635-43.92,0-77.969,16.132a174.39,174.39,0,0,0-57.8,43.465q-23.757,27.348-36.3,64.078A236.638,236.638,0,0,0,365.61,553,325.449,325.449,0,0,0,375.468,633.211Zm149.665-20.164a48.465,48.465,0,0,1-12.547-17.924,84.207,84.207,0,0,1-5.825-24.2q-1.344-13.443-1.344-25.99a107.225,107.225,0,0,1,8.513-43.017q8.508-19.7,30.023-19.717t36.3,18.82a66.487,66.487,0,0,1,14.787,42.122q0,31.38-8.962,54.219t-39.433,22.853Q533.2,620.216,525.133,613.047Zm532.787-235.7q-21.975.9-37.19,14.339-15.255,25.1-18.37,49.738a388.569,388.569,0,0,0-3.14,49.291q0,24.66-.448,49.739-0.462,25.1-11.2,51.083a50.451,50.451,0,0,1-23.3,24.645q-16.131,8.529-32.263,3.137a43.755,43.755,0,0,1-16.131-25.093,183.781,183.781,0,0,1-4.481-33.16,268.944,268.944,0,0,0-1.345-29.126q-1.344-12.1-2.24-22.405t-2.241-21.957a256.3,256.3,0,0,1-1.344-28.678,105.631,105.631,0,0,0-8.066-40.329q-8.066-19.7-21.956-31.366a53.025,53.025,0,0,0-32.263-12.547q-18.38-.882-38.089,16.131a34.612,34.612,0,0,0-14.787,15.236,100.344,100.344,0,0,0-7.618,20.612q-2.688,10.755-4.48,22.405a154.6,154.6,0,0,1-4.481,20.613q-3.592,51.083-2.241,97.685t9.858,84.242q8.506,37.641,25.094,64.526,16.572,26.886,45.257,37.64t69.9,4.033q41.211-6.721,97.685-36.3,2.685,24.2,21.96,35.848a77.474,77.474,0,0,0,40.77,11.651q13.455-4.475,29.58-16.58t19.71-28.23a1164.654,1164.654,0,0,0,10.31-142.943q0.435-67.656-8.51-143.839a110.771,110.771,0,0,0-10.31-33.16,51.334,51.334,0,0,0-23.75-23.3Q1079.86,376.459,1057.92,377.348Zm442.72,205.228a134.807,134.807,0,0,0-34.5-37.64,192.625,192.625,0,0,0-44.81-24.645q-24.195-9.411-44.81-16.58t-34.51-13q-13.9-5.819-13.89-13.891,0-13.443,7.17-19.716a25.042,25.042,0,0,1,17.03-6.273,45.74,45.74,0,0,1,25.54,7.309q11.205,7.309,22.41,15.543t22.4,15.544a45.693,45.693,0,0,0,25.54,7.309q8.07,0,18.38-5.853A99.881,99.881,0,0,0,1486.3,475.8a94.66,94.66,0,0,0,15.68-19.38q6.27-10.356,6.28-19.38,0-23.442-18.82-41.015a155.593,155.593,0,0,0-44.81-28.847,258.867,258.867,0,0,0-54.22-16.677q-28.23-5.419-47.05-5.419a386.675,386.675,0,0,0-56.91,4.481,147.527,147.527,0,0,0-54.67,19.268q-24.66,14.787-40.33,42.569-15.69,27.789-12.99,74.384,1.785,29.574,13.89,48.4A120.268,120.268,0,0,0,1221.92,566a153.626,153.626,0,0,0,37.64,20.612q20.175,7.625,37.2,14.339a177.377,177.377,0,0,1,29.12,14.339q12.105,7.624,13,19.268,0.885,15.25-8.52,14.788-9.4-.441-25.09-6.274t-35.4-13.891a109.446,109.446,0,0,0-38.98-8.514,55.034,55.034,0,0,0-34.96,11.2q-15.69,11.658-23.74,43.017-7.185,26.886,11.65,44.81,18.81,17.939,48.39,28.678a300.566,300.566,0,0,0,62.73,15.235q33.15,4.5,55.57,4.481a215.865,215.865,0,0,0,57.8-8.065,177.972,177.972,0,0,0,52.88-24.2,128.8,128.8,0,0,0,38.53-40.776q14.79-24.639,14.79-57.8Q1514.53,604.981,1500.64,582.576Zm363.86,0a134.691,134.691,0,0,0-34.51-37.64,192.625,192.625,0,0,0-44.81-24.645q-24.2-9.411-44.81-16.58t-34.5-13q-13.9-5.819-13.89-13.891,0-13.443,7.17-19.716a25.006,25.006,0,0,1,17.03-6.273,45.74,45.74,0,0,1,25.54,7.309q11.19,7.309,22.4,15.543t22.41,15.544a45.647,45.647,0,0,0,25.54,7.309q8.07,0,18.37-5.853a100.228,100.228,0,0,0,19.72-14.885,94.994,94.994,0,0,0,15.68-19.38q6.255-10.356,6.27-19.38,0-23.442-18.82-41.015a155.321,155.321,0,0,0-44.81-28.847,258.685,258.685,0,0,0-54.22-16.677q-28.23-5.419-47.05-5.419a386.649,386.649,0,0,0-56.9,4.481,147.4,147.4,0,0,0-54.67,19.268q-24.66,14.787-40.33,42.569-15.69,27.789-13,74.384,1.785,29.574,13.89,48.4A120.3,120.3,0,0,0,1585.78,566a153.626,153.626,0,0,0,37.64,20.612q20.16,7.625,37.19,14.339a177.908,177.908,0,0,1,29.13,14.339q12.09,7.624,12.99,19.268,0.885,15.25-8.51,14.788-9.4-.441-25.09-6.274-15.7-5.818-35.4-13.891a109.5,109.5,0,0,0-38.99-8.514,55.025,55.025,0,0,0-34.95,11.2q-15.69,11.658-23.75,43.017-7.185,26.886,11.65,44.81t48.4,28.678a300.413,300.413,0,0,0,62.73,15.235q33.15,4.5,55.56,4.481a215.882,215.882,0,0,0,57.81-8.065,177.8,177.8,0,0,0,52.87-24.2,128.835,128.835,0,0,0,38.54-40.776q14.79-24.639,14.79-57.8Q1878.39,604.981,1864.5,582.576Z"/>
</svg>
